<mxfile host="app.diagrams.net" modified="2023-08-24T17:13:37.127Z" agent="Mozilla/5.0 (Windows NT 10.0; Win64; x64) AppleWebKit/537.36 (KHTML, like Gecko) Chrome/116.0.0.0 Safari/537.36" etag="rx8FWGb0k4NR3ukYk5sm" version="21.6.8" type="device">
  <diagram name="Page-1" id="bjzMIpOc3kPiObUabqaE">
    <mxGraphModel dx="926" dy="495" grid="1" gridSize="10" guides="1" tooltips="1" connect="1" arrows="1" fold="1" page="1" pageScale="1" pageWidth="850" pageHeight="1100" math="0" shadow="0">
      <root>
        <mxCell id="0" />
        <mxCell id="1" parent="0" />
        <mxCell id="JezvMQpfH4IcLxvB3Sk6-25" style="edgeStyle=orthogonalEdgeStyle;rounded=0;orthogonalLoop=1;jettySize=auto;html=1;exitX=1;exitY=0.25;exitDx=0;exitDy=0;entryX=0;entryY=0.5;entryDx=0;entryDy=0;" edge="1" parent="1" source="JezvMQpfH4IcLxvB3Sk6-1" target="JezvMQpfH4IcLxvB3Sk6-6">
          <mxGeometry relative="1" as="geometry">
            <Array as="points">
              <mxPoint x="180" y="505" />
              <mxPoint x="180" y="308" />
            </Array>
          </mxGeometry>
        </mxCell>
        <mxCell id="JezvMQpfH4IcLxvB3Sk6-36" style="edgeStyle=orthogonalEdgeStyle;rounded=0;orthogonalLoop=1;jettySize=auto;html=1;exitX=1;exitY=0.5;exitDx=0;exitDy=0;entryX=0;entryY=0.5;entryDx=0;entryDy=0;" edge="1" parent="1" source="JezvMQpfH4IcLxvB3Sk6-1" target="JezvMQpfH4IcLxvB3Sk6-2">
          <mxGeometry relative="1" as="geometry">
            <Array as="points">
              <mxPoint x="210" y="520" />
              <mxPoint x="210" y="410" />
            </Array>
          </mxGeometry>
        </mxCell>
        <mxCell id="JezvMQpfH4IcLxvB3Sk6-42" style="edgeStyle=orthogonalEdgeStyle;rounded=0;orthogonalLoop=1;jettySize=auto;html=1;exitX=1;exitY=0.75;exitDx=0;exitDy=0;entryX=0;entryY=0.25;entryDx=0;entryDy=0;" edge="1" parent="1" source="JezvMQpfH4IcLxvB3Sk6-1" target="JezvMQpfH4IcLxvB3Sk6-3">
          <mxGeometry relative="1" as="geometry">
            <Array as="points">
              <mxPoint x="230" y="535" />
              <mxPoint x="230" y="510" />
            </Array>
          </mxGeometry>
        </mxCell>
        <mxCell id="JezvMQpfH4IcLxvB3Sk6-60" style="edgeStyle=orthogonalEdgeStyle;rounded=0;orthogonalLoop=1;jettySize=auto;html=1;exitX=1;exitY=1;exitDx=0;exitDy=0;entryX=0;entryY=0.5;entryDx=0;entryDy=0;" edge="1" parent="1" source="JezvMQpfH4IcLxvB3Sk6-1" target="JezvMQpfH4IcLxvB3Sk6-5">
          <mxGeometry relative="1" as="geometry">
            <Array as="points">
              <mxPoint x="230" y="550" />
              <mxPoint x="230" y="700" />
            </Array>
          </mxGeometry>
        </mxCell>
        <mxCell id="JezvMQpfH4IcLxvB3Sk6-1" value="CLIENT" style="rounded=0;whiteSpace=wrap;html=1;" vertex="1" parent="1">
          <mxGeometry x="40" y="490" width="120" height="70" as="geometry" />
        </mxCell>
        <mxCell id="JezvMQpfH4IcLxvB3Sk6-29" style="edgeStyle=orthogonalEdgeStyle;rounded=0;orthogonalLoop=1;jettySize=auto;html=1;exitX=0.5;exitY=1;exitDx=0;exitDy=0;entryX=0.5;entryY=0;entryDx=0;entryDy=0;" edge="1" parent="1" source="JezvMQpfH4IcLxvB3Sk6-2" target="JezvMQpfH4IcLxvB3Sk6-13">
          <mxGeometry relative="1" as="geometry" />
        </mxCell>
        <mxCell id="JezvMQpfH4IcLxvB3Sk6-40" style="edgeStyle=orthogonalEdgeStyle;rounded=0;orthogonalLoop=1;jettySize=auto;html=1;exitX=1;exitY=0.75;exitDx=0;exitDy=0;entryX=1;entryY=0;entryDx=0;entryDy=0;dashed=1;" edge="1" parent="1" source="JezvMQpfH4IcLxvB3Sk6-2" target="JezvMQpfH4IcLxvB3Sk6-3">
          <mxGeometry relative="1" as="geometry">
            <Array as="points">
              <mxPoint x="510" y="420" />
              <mxPoint x="510" y="500" />
            </Array>
          </mxGeometry>
        </mxCell>
        <mxCell id="JezvMQpfH4IcLxvB3Sk6-2" value="TICKETS" style="rounded=0;whiteSpace=wrap;html=1;" vertex="1" parent="1">
          <mxGeometry x="365" y="390" width="115" height="40" as="geometry" />
        </mxCell>
        <mxCell id="JezvMQpfH4IcLxvB3Sk6-41" style="edgeStyle=orthogonalEdgeStyle;rounded=0;orthogonalLoop=1;jettySize=auto;html=1;exitX=1;exitY=0.25;exitDx=0;exitDy=0;entryX=1;entryY=0.5;entryDx=0;entryDy=0;dashed=1;" edge="1" parent="1" source="JezvMQpfH4IcLxvB3Sk6-3" target="JezvMQpfH4IcLxvB3Sk6-2">
          <mxGeometry relative="1" as="geometry">
            <Array as="points">
              <mxPoint x="480" y="510" />
              <mxPoint x="680" y="510" />
              <mxPoint x="680" y="410" />
            </Array>
          </mxGeometry>
        </mxCell>
        <mxCell id="JezvMQpfH4IcLxvB3Sk6-44" style="edgeStyle=orthogonalEdgeStyle;rounded=0;orthogonalLoop=1;jettySize=auto;html=1;exitX=0.5;exitY=1;exitDx=0;exitDy=0;entryX=0.5;entryY=0;entryDx=0;entryDy=0;" edge="1" parent="1" source="JezvMQpfH4IcLxvB3Sk6-3" target="JezvMQpfH4IcLxvB3Sk6-14">
          <mxGeometry relative="1" as="geometry" />
        </mxCell>
        <mxCell id="JezvMQpfH4IcLxvB3Sk6-62" style="edgeStyle=orthogonalEdgeStyle;rounded=0;orthogonalLoop=1;jettySize=auto;html=1;exitX=1;exitY=1;exitDx=0;exitDy=0;entryX=1;entryY=0.25;entryDx=0;entryDy=0;dashed=1;" edge="1" parent="1" source="JezvMQpfH4IcLxvB3Sk6-3" target="JezvMQpfH4IcLxvB3Sk6-4">
          <mxGeometry relative="1" as="geometry">
            <Array as="points">
              <mxPoint x="510" y="550" />
              <mxPoint x="510" y="620" />
            </Array>
          </mxGeometry>
        </mxCell>
        <mxCell id="JezvMQpfH4IcLxvB3Sk6-3" value="ORDERS" style="rounded=0;whiteSpace=wrap;html=1;" vertex="1" parent="1">
          <mxGeometry x="360" y="500" width="120" height="50" as="geometry" />
        </mxCell>
        <mxCell id="JezvMQpfH4IcLxvB3Sk6-4" value="EXPIRATION" style="rounded=0;whiteSpace=wrap;html=1;" vertex="1" parent="1">
          <mxGeometry x="360" y="610" width="120" height="40" as="geometry" />
        </mxCell>
        <mxCell id="JezvMQpfH4IcLxvB3Sk6-68" style="edgeStyle=orthogonalEdgeStyle;rounded=0;orthogonalLoop=1;jettySize=auto;html=1;exitX=1;exitY=0.25;exitDx=0;exitDy=0;entryX=1;entryY=0.5;entryDx=0;entryDy=0;dashed=1;" edge="1" parent="1" source="JezvMQpfH4IcLxvB3Sk6-5" target="JezvMQpfH4IcLxvB3Sk6-3">
          <mxGeometry relative="1" as="geometry">
            <Array as="points">
              <mxPoint x="640" y="690" />
              <mxPoint x="640" y="525" />
            </Array>
          </mxGeometry>
        </mxCell>
        <mxCell id="JezvMQpfH4IcLxvB3Sk6-70" style="edgeStyle=orthogonalEdgeStyle;rounded=0;orthogonalLoop=1;jettySize=auto;html=1;exitX=0.5;exitY=1;exitDx=0;exitDy=0;entryX=0.5;entryY=0;entryDx=0;entryDy=0;" edge="1" parent="1" source="JezvMQpfH4IcLxvB3Sk6-5" target="JezvMQpfH4IcLxvB3Sk6-16">
          <mxGeometry relative="1" as="geometry" />
        </mxCell>
        <mxCell id="JezvMQpfH4IcLxvB3Sk6-5" value="PAYMENTS" style="rounded=0;whiteSpace=wrap;html=1;" vertex="1" parent="1">
          <mxGeometry x="360" y="680" width="120" height="40" as="geometry" />
        </mxCell>
        <mxCell id="JezvMQpfH4IcLxvB3Sk6-26" style="edgeStyle=orthogonalEdgeStyle;rounded=0;orthogonalLoop=1;jettySize=auto;html=1;exitX=0.5;exitY=1;exitDx=0;exitDy=0;entryX=0.5;entryY=0;entryDx=0;entryDy=0;" edge="1" parent="1" source="JezvMQpfH4IcLxvB3Sk6-6" target="JezvMQpfH4IcLxvB3Sk6-12">
          <mxGeometry relative="1" as="geometry" />
        </mxCell>
        <mxCell id="JezvMQpfH4IcLxvB3Sk6-6" value="AUTH" style="rounded=0;whiteSpace=wrap;html=1;" vertex="1" parent="1">
          <mxGeometry x="360" y="285" width="120" height="45" as="geometry" />
        </mxCell>
        <mxCell id="JezvMQpfH4IcLxvB3Sk6-9" value="/signin(post)&lt;br&gt;/signup(post)&lt;br&gt;/signout(post)&lt;br&gt;/currentUser(get)" style="text;html=1;align=center;verticalAlign=middle;resizable=0;points=[];autosize=1;strokeColor=none;fillColor=none;" vertex="1" parent="1">
          <mxGeometry x="220" y="272.5" width="110" height="70" as="geometry" />
        </mxCell>
        <mxCell id="JezvMQpfH4IcLxvB3Sk6-12" value="db_auth" style="ellipse;whiteSpace=wrap;html=1;" vertex="1" parent="1">
          <mxGeometry x="370" y="350" width="100" height="30" as="geometry" />
        </mxCell>
        <mxCell id="JezvMQpfH4IcLxvB3Sk6-13" value="db_tickets" style="ellipse;whiteSpace=wrap;html=1;" vertex="1" parent="1">
          <mxGeometry x="370" y="450" width="100" height="30" as="geometry" />
        </mxCell>
        <mxCell id="JezvMQpfH4IcLxvB3Sk6-14" value="db_tickets&lt;br&gt;db_orders" style="ellipse;whiteSpace=wrap;html=1;" vertex="1" parent="1">
          <mxGeometry x="370" y="570" width="100" height="30" as="geometry" />
        </mxCell>
        <mxCell id="JezvMQpfH4IcLxvB3Sk6-16" value="db_orders&lt;br&gt;db_payments" style="ellipse;whiteSpace=wrap;html=1;" vertex="1" parent="1">
          <mxGeometry x="370" y="740" width="100" height="40" as="geometry" />
        </mxCell>
        <mxCell id="JezvMQpfH4IcLxvB3Sk6-19" value="/create-ticket(post)&lt;br&gt;/get-ticket(get)&lt;br&gt;/get-tickets(post)&lt;br&gt;/update-ticket(put)" style="text;html=1;align=center;verticalAlign=middle;resizable=0;points=[];autosize=1;strokeColor=none;fillColor=none;" vertex="1" parent="1">
          <mxGeometry x="220" y="375" width="120" height="70" as="geometry" />
        </mxCell>
        <mxCell id="JezvMQpfH4IcLxvB3Sk6-31" value="Ticket_created&lt;br&gt;&amp;nbsp;Ticket_updated" style="text;html=1;align=center;verticalAlign=middle;resizable=0;points=[];autosize=1;strokeColor=none;fillColor=none;rotation=0;" vertex="1" parent="1">
          <mxGeometry x="460" y="440" width="110" height="40" as="geometry" />
        </mxCell>
        <mxCell id="JezvMQpfH4IcLxvB3Sk6-38" value="Order_created&lt;br&gt;Order_cancelled" style="text;html=1;align=center;verticalAlign=middle;resizable=0;points=[];autosize=1;strokeColor=none;fillColor=none;" vertex="1" parent="1">
          <mxGeometry x="630" y="490" width="110" height="40" as="geometry" />
        </mxCell>
        <mxCell id="JezvMQpfH4IcLxvB3Sk6-43" value="/create-order(post)&lt;br&gt;/get-order(get)&lt;br&gt;/get-orders(get)&lt;br&gt;/delete-orders(delete)" style="text;html=1;align=center;verticalAlign=middle;resizable=0;points=[];autosize=1;strokeColor=none;fillColor=none;" vertex="1" parent="1">
          <mxGeometry x="220" y="480" width="140" height="70" as="geometry" />
        </mxCell>
        <mxCell id="JezvMQpfH4IcLxvB3Sk6-46" value="Order_created" style="text;html=1;align=center;verticalAlign=middle;resizable=0;points=[];autosize=1;strokeColor=none;fillColor=none;" vertex="1" parent="1">
          <mxGeometry x="465" y="560" width="100" height="30" as="geometry" />
        </mxCell>
        <mxCell id="JezvMQpfH4IcLxvB3Sk6-64" style="edgeStyle=orthogonalEdgeStyle;rounded=0;orthogonalLoop=1;jettySize=auto;html=1;exitX=1;exitY=0.5;exitDx=0;exitDy=0;exitPerimeter=0;entryX=1;entryY=0.75;entryDx=0;entryDy=0;dashed=1;" edge="1" parent="1" source="JezvMQpfH4IcLxvB3Sk6-54" target="JezvMQpfH4IcLxvB3Sk6-3">
          <mxGeometry relative="1" as="geometry">
            <Array as="points">
              <mxPoint x="580" y="640" />
              <mxPoint x="580" y="538" />
              <mxPoint x="480" y="538" />
            </Array>
          </mxGeometry>
        </mxCell>
        <mxCell id="JezvMQpfH4IcLxvB3Sk6-54" value="" style="points=[[0.145,0.145,0],[0.5,0,0],[0.855,0.145,0],[1,0.5,0],[0.855,0.855,0],[0.5,1,0],[0.145,0.855,0],[0,0.5,0]];shape=mxgraph.bpmn.event;html=1;verticalLabelPosition=bottom;labelBackgroundColor=#ffffff;verticalAlign=top;align=center;perimeter=ellipsePerimeter;outlineConnect=0;aspect=fixed;outline=standard;symbol=timer;" vertex="1" parent="1">
          <mxGeometry x="480" y="630" width="20" height="20" as="geometry" />
        </mxCell>
        <mxCell id="JezvMQpfH4IcLxvB3Sk6-55" value="60seg" style="text;html=1;align=center;verticalAlign=middle;resizable=0;points=[];autosize=1;strokeColor=none;fillColor=none;" vertex="1" parent="1">
          <mxGeometry x="465" y="640" width="60" height="30" as="geometry" />
        </mxCell>
        <mxCell id="JezvMQpfH4IcLxvB3Sk6-59" value="Expiration_completed" style="text;html=1;align=center;verticalAlign=middle;resizable=0;points=[];autosize=1;strokeColor=none;fillColor=none;" vertex="1" parent="1">
          <mxGeometry x="510" y="590" width="140" height="30" as="geometry" />
        </mxCell>
        <mxCell id="JezvMQpfH4IcLxvB3Sk6-61" value="/create-payment" style="text;html=1;align=center;verticalAlign=middle;resizable=0;points=[];autosize=1;strokeColor=none;fillColor=none;" vertex="1" parent="1">
          <mxGeometry x="235" y="680" width="110" height="30" as="geometry" />
        </mxCell>
        <mxCell id="JezvMQpfH4IcLxvB3Sk6-66" value="" style="endArrow=classic;html=1;rounded=0;entryX=1;entryY=0.75;entryDx=0;entryDy=0;dashed=1;" edge="1" parent="1" target="JezvMQpfH4IcLxvB3Sk6-5">
          <mxGeometry width="50" height="50" relative="1" as="geometry">
            <mxPoint x="680" y="510" as="sourcePoint" />
            <mxPoint x="440" y="500" as="targetPoint" />
            <Array as="points">
              <mxPoint x="680" y="510" />
              <mxPoint x="680" y="690" />
              <mxPoint x="680" y="710" />
            </Array>
          </mxGeometry>
        </mxCell>
        <mxCell id="JezvMQpfH4IcLxvB3Sk6-69" value="Payment_created" style="text;html=1;align=center;verticalAlign=middle;resizable=0;points=[];autosize=1;strokeColor=none;fillColor=none;" vertex="1" parent="1">
          <mxGeometry x="570" y="640" width="120" height="30" as="geometry" />
        </mxCell>
      </root>
    </mxGraphModel>
  </diagram>
</mxfile>
